<?xml version="1.0" encoding="UTF-8"?>
<svg id="Capa_2" data-name="Capa 2" xmlns="http://www.w3.org/2000/svg" viewBox="0 0 450 600">
  <defs>
    <style>
      .cls-1 {
        isolation: isolate;
      }

      .cls-2 {
        fill: #f58686;
      }

      .cls-2, .cls-3 {
        stroke-width: 0px;
      }

      .cls-3 {
        fill: #fff;
      }
    </style>
  </defs>
  <g id="Capa_1-2" data-name="Capa 1">
    <rect class="cls-3" width="450" height="600"/>
    <g id="OBJECTS">
      <g class="cls-1">
        <g class="cls-1">
          <path class="cls-2" d="M121.75,168.13h177.89v53.96h-122.25v64.92h105.39v53.96h-105.39v112.13h-56.49V168.13h.84Z"/>
          <path class="cls-2" d="M384.8,372.16c-5.9,13.49-10.96,26.98-16.86,40.47-5.9,13.49-10.96,26.98-16.86,40.47h-43c5.06-13.49,10.12-26.98,15.18-40.47s10.12-26.98,15.18-40.47h47.21-.84ZM346.02,259.18c5.9-5.06,11.8-8.43,18.55-8.43s12.65,2.53,18.55,8.43c5.9,5.06,8.43,11.8,8.43,20.23s-2.53,15.18-8.43,20.23c-5.9,5.06-11.8,7.59-18.55,7.59s-12.65-2.53-18.55-7.59c-5.9-5.06-8.43-11.8-8.43-20.23s2.53-14.33,8.43-20.23Z"/>
        </g>
      </g>
    </g>
  </g>
</svg>