<?xml version="1.0" encoding="UTF-8"?>
<svg id="Capa_2" data-name="Capa 2" xmlns="http://www.w3.org/2000/svg" viewBox="0 0 1000 1000">
  <defs>
    <style>
      .cls-1 {
        fill: #f58686;
        stroke-width: 0px;
      }
    </style>
  </defs>
  <g id="Capa_1-2" data-name="Capa 1">
    <path class="cls-1" d="M0,0v1000h1000V0H0ZM581.14,172.95s24.98-.04,34.93-.04c-17.02-17.02-23.17-22.65-34.93-34.42v-37.71h87.98v37.71h-35.15l35.15,34.45v34.4h-87.98v-34.39ZM456.44,172.95s24.98-.04,34.93-.04c-17.02-17.02-23.16-22.65-34.93-34.42v-37.71h87.98v37.71h-35.14l35.14,34.45v34.4h-87.98v-34.39ZM330.87,100.78h87.98v37.71h-50.27v34.45h50.27v34.4h-87.98v-106.56ZM731.55,836.87l-231.55,62.35-231.56-62.35-53.44-578.88h569.99l-53.44,578.88ZM509.45,445.6l-9.66,4.02-165.73,69.03,5.49,68.33,160.24.52,85.88.27-5.51,91.11-80.37,22.63v-.07l-.66.18-77.63-19.6-4.72-56.55h-72.51l9.42,109.18,146.1,43.2v-.08l.26.08,145.31-42.41,18.86-216.79h-164.84l.41-.18,170.44-72.87,7.07-69.91h-358.17l8.64,69.91h181.68Z"/>
  </g>
</svg>