<?xml version="1.0" encoding="UTF-8"?>
<svg id="Capa_2" data-name="Capa 2" xmlns="http://www.w3.org/2000/svg" viewBox="0 0 1000 1000">
  <defs>
    <style>
      .cls-1 {
        fill: #f58686;
        stroke-width: 0px;
      }
    </style>
  </defs>
  <g id="Capa_1-2" data-name="Capa 1">
    <path class="cls-1" d="M0,0v1000h1000V0H0ZM125.89,700.28c-6.36,0-11.52-5.16-11.52-11.52V200.36c0-6.37,5.16-11.53,11.52-11.53h719.3c6.36,0,11.52,5.16,11.52,11.53v488.4c0,6.36-5.16,11.52-11.52,11.52h-18.35l-73.42-76.24h27.05v-358.97H190.6v358.97h338.93c4.16,0,18.37,45.98,66.06,45.98l23.56,30.26H125.89ZM528.62,446.78c-12.47,4.59-27.27,11.7-41.59,18.58-28.73,13.8-53.54,25.73-73.34,25.73-7.52,0-13.96-1.68-19.69-5.12-7.75-4.59-25.07-18.58-16.88-48.38,3.48-12.66,10.87-25.86,18.01-38.63,4.21-7.52,11.43-20.41,14.08-28.35-2.12.88-5.06,2.38-8.98,4.95-9.32,6.09-19.48,15.02-29.3,23.66-11.99,10.54-22.33,19.65-32.3,24.89-3.2,1.69-7,1.77-10.27.23-3.27-1.53-5.63-4.51-6.37-8.05l-4.66-22.12c-.94-4.46.84-9.06,4.55-11.73,4.64-3.34,11.26-9.01,19.77-16.5,20.78-18.28,46.65-41.03,72.32-41.03,8.97,0,17.32,2.85,24.82,8.48,0,0,.15.11.16.12,8.36,6.44,21.05,21.26,12.91,48.87-3.74,12.68-11.02,25.67-18.06,38.24-4.05,7.24-9.81,17.53-12.73,24.91,12.34-3.59,33.5-13.75,46.77-20.13,29.76-14.3,57.87-27.8,80.18-27.8,6.45,0,12.12,1.06,17.35,3.25,9.88,4.13,16.99,11.82,20.56,22.22,6.92,20.77-8.81,38.23-20.3,50.99-2.31,2.55-5.46,6.05-8.15,9.38-1.54,1.91-3.65,3.27-6.02,3.9-9.76,2.59-20.46,5.63-27.73,7.73-1.05.3-2.12.45-3.19.45-2.88,0-5.7-1.08-7.86-3.1-2.97-2.76-4.26-6.88-3.4-10.84,3.01-14.04,13.39-26.04,22.18-35.81-.93.32-1.87.65-2.84,1.01ZM605.09,649.03c-18.8-.01-36.17-13.21-46.44-35.32-7.55-16.27-9.87-31.01-11.93-44.01-2.5-15.81-4.66-29.46-15.18-41.63-2.7-3.13-3.52-7.48-2.14-11.38,1.38-3.91,4.75-6.77,8.83-7.5,10.41-1.87,20.67-2.81,30.48-2.81,44.6,0,81.86,20.37,94.92,51.89,9.84,23.75,3.86,49.78-16,69.64-7,7.01-14.08,12.29-21.19,15.81-7.11,3.53-14.24,5.31-21.35,5.31ZM910.3,884.78c-2.71,2.71-6.63,4.09-11.64,4.09-32.61,0-113.6-58.22-196.95-141.57-24.2-24.2-47.55-49.61-67.55-73.5-2.23-2.67-3.14-6.21-2.47-9.63.68-3.41,2.86-6.34,5.94-7.96,7.39-3.9,14.72-9.46,21.78-16.52,8.59-8.59,14.92-18.23,18.8-28.65,1.3-3.5,4.22-6.15,7.83-7.12,3.6-.96,7.45-.12,10.33,2.27,24.82,20.6,51.26,44.81,76.44,69.99,45.84,45.84,85.44,92.46,111.5,131.29,18.93,28.2,38.8,64.5,25.99,77.31Z"/>
  </g>
</svg>