<?xml version="1.0" encoding="UTF-8"?>
<svg id="Capa_2" data-name="Capa 2" xmlns="http://www.w3.org/2000/svg" version="1.1" viewBox="0 0 70 70">
  <defs>
    <style>
      .cls-1 {
        isolation: isolate;
      }

      .cls-2 {
        fill: #ffa1a1;
      }

      .cls-2, .cls-3 {
        stroke-width: 0px;
      }

      .cls-3 {
        fill: #fff;
      }
    </style>
  </defs>
  <g id="OBJECTS">
    <rect class="cls-2" width="70" height="70" rx="1.8" ry="1.8"/>
    <g class="cls-1">
      <g class="cls-1">
        <path class="cls-3" d="M20.9,17.8h21.1v6.4h-14.5v7.7h12.5v6.4h-12.5v13.3h-6.7V17.8Z"/>
        <path class="cls-3" d="M52.1,47.6c-.7,1.6-1.3,3.2-2,4.8s-1.3,3.2-2,4.8h-5.1c.6-1.6,1.2-3.2,1.8-4.8.6-1.6,1.2-3.2,1.8-4.8h5.6ZM47.5,34.2c.7-.6,1.4-1,2.2-1s1.5.3,2.2,1c.7.6,1,1.4,1,2.4s-.3,1.8-1,2.4c-.7.6-1.4.9-2.2.9s-1.5-.3-2.2-.9c-.7-.6-1-1.4-1-2.4s.3-1.7,1-2.4Z"/>
      </g>
    </g>
  </g>
</svg>