<?xml version="1.0" encoding="UTF-8"?>
<svg id="Capa_2" data-name="Capa 2" xmlns="http://www.w3.org/2000/svg" version="1.1" viewBox="0 0 194.8 71.4">
  <defs>
    <style>
      .cls-1 {
        isolation: isolate;
      }

      .cls-2 {
        fill: #ffa1a1;
      }

      .cls-2, .cls-3 {
        stroke-width: 0px;
      }

      .cls-3 {
        fill: #fff;
      }
    </style>
  </defs>
  <g id="OBJECTS">
    <rect class="cls-2" width="194.8" height="71.4" rx="3" ry="3"/>
    <g class="cls-1">
      <g class="cls-1">
        <path class="cls-3" d="M23,25.1h15.1v4.6h-10.3v5.5h9v4.6h-9v9.5h-4.8v-24.2Z"/>
      </g>
      <g class="cls-1">
        <path class="cls-3" d="M47.6,49.7c-1.8,0-3.2-.3-4.4-1-1.2-.7-2.1-1.6-2.8-2.7-.6-1.2-1-2.5-1-4s.4-2.7,1.1-3.9c.7-1.2,1.7-2.1,3-2.8,1.2-.7,2.6-1,4.2-1s3.7.6,5.1,1.8c1.3,1.2,2.2,2.9,2.6,5.2l-11.2,3.5-1-2.5,8.1-2.7-1,.4c-.2-.6-.5-1.1-.9-1.5-.4-.4-1.1-.6-2-.6s-1.9.3-2.5,1.1-.9,1.6-.9,2.8.4,2.3,1.1,3c.7.7,1.6,1,2.7,1s1,0,1.5-.3c.5-.2.9-.4,1.4-.7l2,3.4c-.8.4-1.6.8-2.5,1.1-.9.3-1.7.4-2.5.4Z"/>
        <path class="cls-3" d="M62.9,34.9l.4,3.9v-.6c.3-.9.9-1.6,1.6-2.2.7-.6,1.4-1.1,2.2-1.4.7-.3,1.3-.5,1.6-.5l-.2,4.6c-1.1-.1-2,0-2.8.5-.8.5-1.4,1.1-1.8,1.9-.4.8-.6,1.6-.6,2.4v5.6h-4.6v-14.3h4.1Z"/>
        <path class="cls-3" d="M76.4,34.9l.4,2.6v-.2c.4-.9,1.1-1.6,2.1-2.2.9-.6,2-.8,3.4-.8s2.5.4,3.4,1.2c.9.8,1.4,1.8,1.4,3.1v10.7h-4.6v-9c0-.6-.2-1.1-.5-1.5-.3-.4-.8-.6-1.6-.6-1.1,0-1.9.5-2.5,1.5s-.9,2.3-.9,3.8v5.8h-4.6v-14.3h4.2Z"/>
        <path class="cls-3" d="M97.7,49.7c-1.3,0-2.5-.3-3.6-.8-1.1-.5-1.9-1.4-2.6-2.5-.6-1.1-1-2.5-1-4.3s.3-3,1-4.2c.7-1.2,1.5-2.1,2.6-2.7,1.1-.6,2.2-1,3.4-1s2.5.2,3.2.7,1.3,1,1.8,1.6l-.2.6.4-2.1h4.3v14.3h-4.6v-3.1l.4,1s-.2.1-.4.4c-.2.3-.5.5-1,.9s-1,.6-1.6.9c-.6.2-1.4.4-2.2.4ZM99.1,45.9c.8,0,1.5-.2,2.1-.5s1-.9,1.4-1.6v-3.5c-.3-.7-.7-1.3-1.4-1.7s-1.4-.6-2.3-.6-1.3.2-1.8.5c-.6.3-1,.8-1.3,1.4-.3.6-.5,1.3-.5,2s.2,1.5.5,2.1c.3.6.8,1.1,1.4,1.4.6.3,1.2.5,1.9.5Z"/>
        <path class="cls-3" d="M116,34.9l.4,2.6v-.2c.4-.9,1.1-1.6,2.1-2.2.9-.6,2-.8,3.4-.8s2.5.4,3.4,1.2c.9.8,1.4,1.8,1.4,3.1v10.7h-4.6v-9c0-.6-.2-1.1-.5-1.5-.3-.4-.8-.6-1.6-.6-1.1,0-1.9.5-2.5,1.5s-.9,2.3-.9,3.8v5.8h-4.6v-14.3h4.2Z"/>
        <path class="cls-3" d="M137.2,49.7c-1.3,0-2.5-.3-3.6-.9s-1.9-1.5-2.5-2.7c-.6-1.2-.9-2.6-.9-4.2s.3-3,1-4.1c.7-1.1,1.6-2,2.7-2.6,1.1-.6,2.4-.9,3.9-.9s1.8.1,2.6.4c.8.3,1.5.7,2.1,1.3v1.4-14h4.6v25.9h-4.6v-2.8l.4,1c-.7.6-1.6,1.1-2.5,1.6-.9.4-2,.6-3.2.6ZM138.7,45.8c.9,0,1.7-.2,2.3-.5.6-.4,1.1-.9,1.5-1.6v-3.5c-.3-.7-.7-1.3-1.4-1.7-.7-.4-1.5-.6-2.4-.6s-1.3.2-1.9.5c-.6.3-1,.8-1.4,1.4-.4.6-.5,1.3-.5,2s.2,1.5.5,2.1c.3.6.8,1.1,1.4,1.4.6.3,1.2.5,1.9.5Z"/>
        <path class="cls-3" d="M150.7,41.9c0-1.5.3-2.8,1-3.9.7-1.2,1.7-2.1,2.9-2.7,1.2-.7,2.7-1,4.3-1s3.1.3,4.3,1c1.2.7,2.1,1.6,2.8,2.7.6,1.2,1,2.5,1,3.9s-.3,2.8-1,4c-.6,1.2-1.6,2.1-2.8,2.8-1.2.7-2.6,1-4.3,1s-3-.3-4.2-.9c-1.2-.6-2.2-1.5-2.9-2.7-.7-1.2-1.1-2.6-1.1-4.2ZM155.4,41.9c0,.7.2,1.4.5,2,.3.6.7,1.1,1.2,1.4s1.1.5,1.8.5c1.1,0,1.9-.4,2.6-1.1.6-.8,1-1.7,1-2.8s-.3-2.1-1-2.8c-.6-.8-1.5-1.1-2.6-1.1s-1.2.2-1.8.5-.9.8-1.2,1.4c-.3.6-.5,1.3-.5,2Z"/>
        <path class="cls-3" d="M173.9,46.4c-.5,1.2-1,2.3-1.4,3.4s-1,2.3-1.4,3.4h-3.7c.4-1.2.9-2.3,1.3-3.4s.9-2.3,1.3-3.4h4ZM170.7,36.8c.5-.5,1-.7,1.6-.7s1.1.2,1.6.7c.5.5.7,1,.7,1.7s-.2,1.3-.7,1.7c-.5.4-1,.6-1.6.6s-1.1-.2-1.6-.6c-.5-.4-.7-1-.7-1.7s.2-1.2.7-1.7Z"/>
      </g>
    </g>
  </g>
</svg>