<?xml version="1.0" encoding="UTF-8"?>
<svg id="Capa_2" data-name="Capa 2" xmlns="http://www.w3.org/2000/svg" version="1.1" viewBox="0 0 213 71.4">
  <defs>
    <style>
      .cls-1 {
        fill: #000;
      }

      .cls-1, .cls-2 {
        stroke-width: 0px;
      }

      .cls-3 {
        isolation: isolate;
      }

      .cls-2 {
        fill: #fff;
      }
    </style>
  </defs>
  <g id="OBJECTS">
    <rect class="cls-1" width="213" height="71.4" rx="3.1" ry="3.1"/>
    <g>
      <path class="cls-2" d="M186.8,56.2h0v-9.1c0-1.2-.2-2.4-.6-3.5-.3-.8-.8-1.6-1.5-2.3,1.1-.2,2-.3,3-.5,1.5-.3,2.9-.8,4.2-1.5,2.6-1.3,4.5-3.2,5.6-6,1.5-3.8,1.9-7.6.7-11.6-.4-1.5-1.2-2.8-2.2-4-.2-.3-.3-.5-.1-.8.8-2.6.5-5.1-.4-7.5-.1-.3-.3-.3-.6-.3-1.1,0-2.2.3-3.3.7-1.6.6-3,1.4-4.4,2.2-.3.2-.6.3-.9.2-4.3-1.1-8.6-1.1-12.9-.3-1.5.3-2.8.2-4.1-.7-1.6-1.1-3.4-1.8-5.4-2.1-.3,0-.6,0-.8,0l-.6.2c-.1.2-.2.5-.4,1-.7,2.3-.8,4.6-.1,6.8,0,.3,0,.6-.2.8-1.9,2.2-2.8,4.8-2.8,7.7,0,2.3.2,4.6.9,6.8,1.5,4.4,4.6,6.9,9,8.1,1.4.4,2.8.6,4.3.8-.4.5-.8.9-1.1,1.3-.4.7-.7,1.5-.8,2.3,0,.3-.2.5-.5.6-3.6,1.5-6.7.5-8.8-2.8-1-1.5-2.3-2.6-4.1-3-.6-.1-1.1-.1-1.7,0-.5.2-.6.5-.3.9.2.3.5.5.8.7,1.8,1.1,2.9,2.7,3.7,4.6,1.2,2.9,3.5,4.2,6.5,4.5,1.4.1,2.7,0,4.1-.3,0,1.9,0,4,0,5.8,0,0,0,5.8,7.8,5.8s7.9-5.8,7.9-5.8h0Z"/>
      <g class="cls-3">
        <g class="cls-3">
          <path class="cls-2" d="M36.8,46.8c-.3.3-.7.6-1.3.9-.6.3-1.3.6-2.1.9-.8.3-1.6.5-2.4.6-.8.2-1.6.2-2.4.2-2.6,0-4.9-.5-6.8-1.5-1.9-1-3.4-2.4-4.4-4.1-1-1.8-1.6-3.8-1.6-6s.3-4.1,1-5.8c.7-1.6,1.6-3,2.7-4.1s2.5-1.9,4-2.4c1.5-.5,3.1-.8,4.7-.8s3,.2,4.3.5c1.3.3,2.4.8,3.3,1.3l-1.5,4.4c-.4-.2-.9-.4-1.6-.7-.7-.2-1.3-.4-2-.5s-1.3-.2-1.8-.2c-1.7,0-3.2.3-4.4.9-1.2.6-2.1,1.5-2.8,2.6-.6,1.2-.9,2.6-.9,4.3s.3,2.8,1,3.9c.7,1.1,1.6,1.9,2.8,2.5,1.2.6,2.6.9,4.2.9s1.3,0,1.9-.1c.6,0,1.1-.3,1.4-.5v-2.9h-4.2v-4.6h9v10.2Z"/>
          <path class="cls-2" d="M42.2,25.1h4.8v24.2h-4.8v-24.2Z"/>
          <path class="cls-2" d="M51.6,25.1h16.3v4.6h-5.9v19.6h-4.8v-19.6h-5.6v-4.6Z"/>
          <path class="cls-2" d="M92.8,25.1v24.2h-4.8v-9.8h-10.8v9.8h-4.8v-24.2h4.8v9.8h10.8v-9.8h4.8Z"/>
          <path class="cls-2" d="M103.3,40.3c0,.8.2,1.5.7,2.2.5.7,1.1,1.3,1.8,1.7.8.4,1.6.7,2.5.7s1.9-.2,2.6-.7c.8-.4,1.4-1,1.8-1.7.4-.7.7-1.4.7-2.2v-15.2h4.7v15.3c0,1.8-.4,3.3-1.3,4.7s-2.1,2.4-3.5,3.2c-1.5.8-3.1,1.2-5,1.2s-3.4-.4-4.9-1.2c-1.5-.8-2.7-1.8-3.5-3.2s-1.3-2.9-1.3-4.7v-15.3h4.8v15.2Z"/>
          <path class="cls-2" d="M130.9,25.1c2.5,0,4.5.5,6,1.5,1.5,1,2.2,2.5,2.2,4.5s-.4,2.7-1.1,3.7c-.7,1-1.7,1.7-3,2.2-1.3.5-2.7.7-4.3.7l-.8-2.6c2,0,3.8.3,5.3.8s2.8,1.3,3.7,2.3c.9,1,1.3,2.2,1.3,3.7s-.2,2.4-.7,3.3-1.1,1.6-1.9,2.2c-.8.6-1.7,1-2.7,1.2s-2,.4-3.1.4h-8v-24.2h7.1ZM131.5,35c.9,0,1.6-.3,2.1-.9.4-.6.7-1.2.7-1.9s-.3-1.5-.8-1.9c-.6-.4-1.3-.6-2.2-.6h-2.6v5.3h2.9ZM131.7,44.8c1.1,0,1.9-.2,2.7-.6.7-.4,1.1-1.1,1.1-2.1s-.2-1.2-.6-1.6c-.4-.4-.9-.6-1.5-.8s-1.3-.2-2-.2h-2.7v5.3h3.1Z"/>
        </g>
      </g>
    </g>
  </g>
</svg>