<?xml version="1.0" encoding="UTF-8"?>
<svg id="Capa_2" data-name="Capa 2" xmlns="http://www.w3.org/2000/svg" viewBox="0 0 1000 1000">
  <defs>
    <style>
      .cls-1 {
        fill: #f58686;
        stroke-width: 0px;
      }
    </style>
  </defs>
  <g id="Capa_1-2" data-name="Capa 1">
    <g>
      <path class="cls-1" d="M989.6,0H10.4C4.65,0,0,4.65,0,10.4v979.2c0,5.74,4.65,10.4,10.4,10.4h979.2c5.74,0,10.4-4.66,10.4-10.4V10.4c0-5.75-4.66-10.4-10.4-10.4ZM644.59,100.78h36v72.08h50.61v35.59h-86.61v-107.67ZM505.47,100.78h37.53l23.08,37.83,23.06-37.83h37.54v107.67h-35.84v-53.37l-24.76,38.29h-.62l-24.77-38.29v53.37h-35.22v-107.67ZM390.33,100.78h99.37v35.71h-31.7v71.96h-35.98v-71.96h-31.69v-35.71ZM269.79,100.78h35.99v35.56h32.92v-35.56h35.99v107.67h-35.99v-36.06h-32.92v36.06h-35.99v-107.67ZM731.29,835l-231.64,64.21-231.01-64.12-51.48-577.4h565.67l-51.54,577.31Z"/>
      <g id="c133de6af664cd4f011a55de6b000d0b">
        <polygon class="cls-1" points="677.14 375.72 675.45 394.72 672.22 430.62 670.81 446.54 399.82 446.54 406.29 519.05 664.36 519.05 662.63 538.07 645.99 724.5 644.93 736.46 500 776.63 500 776.64 499.67 776.73 354.61 736.46 344.69 625.27 415.78 625.27 420.82 681.75 499.68 703.05 499.75 703.03 578.74 681.71 586.95 589.87 341.52 589.87 324.12 394.72 322.42 375.72 677.14 375.72"/>
      </g>
    </g>
  </g>
</svg>