<?xml version="1.0" encoding="UTF-8"?>
<svg id="Capa_2" data-name="Capa 2" xmlns="http://www.w3.org/2000/svg" version="1.1" xmlns:xlink="http://www.w3.org/1999/xlink" viewBox="0 0 213 71.4">
  <defs>
    <style>
      .cls-1 {
        isolation: isolate;
      }

      .cls-2 {
        fill: #fff;
      }

      .cls-2, .cls-3 {
        stroke-width: 0px;
      }

      .cls-3 {
        fill: url(#Degradado_sin_nombre);
      }
    </style>
    <linearGradient id="Degradado_sin_nombre" data-name="Degradado sin nombre" x1="36.3" y1="-31.9" x2="176.7" y2="108.5" gradientTransform="translate(0 74) scale(1 -1)" gradientUnits="userSpaceOnUse">
      <stop offset="0" stop-color="#f3c525"/>
      <stop offset="0" stop-color="#f5ba1d"/>
      <stop offset=".2" stop-color="#fb9d0a"/>
      <stop offset=".3" stop-color="#ff8e00"/>
      <stop offset=".4" stop-color="#f57916"/>
      <stop offset=".6" stop-color="#de454f"/>
      <stop offset=".8" stop-color="#bf009a"/>
      <stop offset="1" stop-color="#771556"/>
    </linearGradient>
  </defs>
  <g id="OBJECTS">
    <rect class="cls-3" width="213" height="71.4" rx="3.1" ry="3.1"/>
    <g>
      <path class="cls-2" d="M185.6,55.8c-2.9,0-4.9,0-6.9,0-1.8,0-3.6,0-5.4-.5-2.3-.6-4.2-1.7-5.7-3.5-1.5-1.8-2.2-3.9-2.5-6.1-.2-1.7-.3-3.4-.3-5.2,0-3.4,0-6.8,0-10.2,0-1.7,0-3.4.3-5.1.5-3.1,1.9-5.6,4.5-7.4,1.6-1.1,3.3-1.7,5.2-1.9,4.1-.4,8.2-.2,12.3-.3,1.7,0,3.5,0,5.2,0,1.9,0,3.7.2,5.5.9,1.9.7,3.5,1.9,4.8,3.6,1.3,1.8,2,3.8,2.1,6,.4,5.2.2,10.4.2,15.6,0,1.6,0,3.2-.4,4.8-.5,2.3-1.4,4.4-3.2,6-1.4,1.3-3.1,2.2-4.9,2.6-1.1.3-2.3.3-3.5.4-2.8.2-5.5,0-7.4,0h0ZM201.3,35.7c0-2.5,0-4.9,0-7.4,0-1.2-.1-2.5-.5-3.7-.4-1.2-1-2.3-1.9-3.2-1.3-1.2-3-1.7-4.7-1.9-1.9-.2-3.8-.2-5.7-.2-3.2,0-6.4,0-9.7,0-1.3,0-2.6,0-3.9.3-1.8.3-3.4,1.1-4.6,2.6-1,1.3-1.4,2.8-1.6,4.4-.1,1.5-.2,3.1-.2,4.7,0,3.9,0,7.8,0,11.7,0,1.1.1,2.3.4,3.4.4,1.6,1.2,2.9,2.4,3.9,1.2,1,2.6,1.4,4.1,1.6,1.5.2,3.1.2,4.6.2,4,0,8,0,12,0,1,0,2,0,3.1-.3,1.6-.3,3-.9,4.1-2.2,1-1,1.5-2.3,1.7-3.7.3-1.7.3-3.3.3-5,0-1.7,0-3.5,0-5.2h0Z"/>
      <path class="cls-2" d="M184.9,46c-5.6,0-10.3-4.6-10.3-10.4,0-5.7,4.6-10.2,10.4-10.2,5.7,0,10.2,4.6,10.3,10.3,0,5.7-4.6,10.4-10.4,10.3h0ZM184.9,42.4c3.6,0,6.6-3,6.6-6.6,0-3.7-2.9-6.6-6.6-6.6-3.6,0-6.6,3-6.6,6.7,0,3.7,2.9,6.5,6.6,6.6h0Z"/>
      <path class="cls-2" d="M198.1,25.1c0,1.4-1.1,2.4-2.4,2.4s-2.5-1.1-2.5-2.4c0-1.4,1.1-2.5,2.4-2.5,1.4,0,2.4,1,2.4,2.5h0Z"/>
    </g>
    <g class="cls-1">
      <g class="cls-1">
        <path class="cls-2" d="M11.9,26.5h3.6v18.1h-3.6v-18.1Z"/>
        <path class="cls-2" d="M36.4,45.3l-13.7-12.4,1.1.6v11.1c0,0-3.5,0-3.5,0v-18.8h.1l13.4,12.4-.8-.3v-11.3c0,0,3.5,0,3.5,0v18.9h0Z"/>
        <path class="cls-2" d="M50.8,30.9c-.7-.4-1.4-.7-2.1-.9s-1.4-.4-2-.4-1.4.2-1.8.5c-.4.3-.7.8-.7,1.4s.2.8.5,1.1c.3.3.8.6,1.3.9.5.3,1.1.5,1.7.7.7.3,1.4.6,2,1,.7.4,1.2,1,1.6,1.6.4.7.6,1.6.6,2.8s-.2,1.8-.7,2.6c-.5.8-1.2,1.4-2.1,1.9-.9.5-2.1.7-3.4.7s-2.1-.2-3.2-.5c-1.1-.3-2.1-.8-3-1.5l1.6-2.8c.6.5,1.3.8,2.1,1.1.8.3,1.5.4,2.2.4s.9,0,1.3-.2.8-.3,1.1-.6c.3-.3.4-.7.4-1.2s-.1-.7-.4-1c-.2-.3-.6-.6-1-.8-.4-.2-.8-.5-1.3-.6-.6-.2-1.1-.5-1.7-.7s-1.1-.6-1.7-1-.9-.9-1.3-1.5c-.3-.6-.5-1.3-.5-2.2s.2-2,.7-2.7,1.1-1.4,2-1.8,1.8-.7,3-.8c1.5,0,2.6.2,3.6.5s1.7.8,2.4,1.2l-1.4,2.7Z"/>
      </g>
      <g class="cls-1">
        <path class="cls-2" d="M54.2,26.5h12.2v3.4h-4.4v14.7h-3.6v-14.7h-4.2v-3.4Z"/>
      </g>
      <g class="cls-1">
        <path class="cls-2" d="M66.4,44.6l8.2-18.8h.2l8.2,18.8h-4.1l-5.2-13.2,2.6-1.8-6.3,15h-3.5ZM72,38.1h5.4l1.3,3h-7.8l1.1-3Z"/>
      </g>
      <g class="cls-1">
        <path class="cls-2" d="M99.5,42.8c-.2.2-.6.5-1,.7-.5.2-1,.5-1.6.7-.6.2-1.2.4-1.8.5-.6.1-1.2.2-1.8.2-2,0-3.7-.4-5.1-1.1s-2.6-1.8-3.3-3.1c-.8-1.3-1.2-2.8-1.2-4.5s.2-3.1.8-4.3c.5-1.2,1.2-2.2,2-3.1.9-.8,1.9-1.4,3-1.8,1.1-.4,2.3-.6,3.5-.6s2.2.1,3.2.4c1,.3,1.8.6,2.5.9l-1.2,3.3c-.3-.2-.7-.3-1.2-.5-.5-.2-1-.3-1.5-.4-.5-.1-1-.2-1.4-.2-1.3,0-2.4.2-3.3.7-.9.4-1.6,1.1-2.1,2-.5.9-.7,2-.7,3.2s.3,2.1.8,2.9c.5.8,1.2,1.5,2.1,1.9.9.4,1.9.7,3.1.7s1,0,1.4-.1c.4,0,.8-.2,1.1-.4v-2.2h-3.1v-3.4h6.7v7.7Z"/>
        <path class="cls-2" d="M109.1,26.5c1.5,0,2.8.2,3.9.8,1.1.5,1.9,1.2,2.4,2.1s.8,2,.8,3.2-.1,1.5-.3,2.2-.6,1.4-1.1,2c-.5.6-1.2,1.1-2,1.5-.8.4-1.8.6-3.1.6h-2.6v5.8h-3.6v-18.1h5.5ZM109.7,35.4c.7,0,1.3-.2,1.7-.5.4-.3.7-.7.8-1.1.2-.4.2-.8.2-1.1s0-.4,0-.8-.2-.6-.4-.9c-.2-.3-.5-.6-.8-.8-.4-.2-.9-.3-1.5-.3h-2.6v5.5h2.5ZM113,37.6l4.5,7h-4.2l-4.6-6.9h4.3Z"/>
        <path class="cls-2" d="M118.4,44.6l8.2-18.8h.2l8.2,18.8h-4.1l-5.2-13.2,2.6-1.8-6.3,15h-3.5ZM124,38.1h5.4l1.3,3h-7.8l1.1-3Z"/>
        <path class="cls-2" d="M137.6,44.6v-18.9h0l10.1,14.3-1.5-.3,10-13.9h0v18.9h-3.6v-10.8l.2,1.8-6.1,8.7h0l-6.3-8.7.6-1.7v10.7h-3.4Z"/>
      </g>
    </g>
  </g>
</svg>