<?xml version="1.0" encoding="UTF-8"?>
<svg id="Capa_2" data-name="Capa 2" xmlns="http://www.w3.org/2000/svg" viewBox="0 0 1000 1000">
  <defs>
    <style>
      .cls-1 {
        fill: #f58686;
        stroke-width: 0px;
      }
    </style>
  </defs>
  <g id="Capa_1-2" data-name="Capa 1">
    <g>
      <path class="cls-1" d="M671.14,521.89c-1.21,11.83-2.48,23.66-3.64,35.5-.93,9.49-1.73,18.99-2.59,28.49-1.09,12.09-2.2,24.19-3.28,36.28-.89,9.9-1.72,19.81-2.62,29.72-1.06,11.76-2.16,23.53-3.26,35.29-1.01,10.71-2.02,21.42-3.09,32.13-.77,7.62-1.66,15.23-2.45,22.84-.13,1.26-.61,2-1.94,2.01-.37.52-.92.5-1.47.51-.36.5-.9.49-1.43.51-5.69,2.45-11.69,3.99-17.6,5.75-35.66,10.68-71.56,20.51-107.51,30.15-7.3,1.96-14.65,3.78-21.98,5.66-5.57-1.46-11.15-2.86-16.7-4.39-42.33-11.66-84.68-23.29-126.83-35.61-4.44-1.3-5.96-3.43-6.56-7.76-1.88-13.56-3.52-27.15-4.81-40.78-1.44-15.26-2.96-30.51-4.23-45.78-.64-7.7-1.16-15.44-1.05-23.11.83-.69,1.68-.43,2.46-.43,23.2-.02,46.4.01,69.59-.06,2.12-.01,2.75.6,2.92,2.7.83,9.99,1.88,19.96,2.78,29.94.74,8.28,1.39,16.56,2.1,25.12,5.23,1.43,10.46,2.86,15.69,4.3,20.31,5.57,40.58,11.28,61.07,16.21,1.15.27,2.3.9,3.55.36.62.42,1.25.16,1.89.04,9.85-1.87,19.52-4.5,29.21-7.03,15.85-4.14,31.68-8.34,47.32-13.19,1.93-.6,2.91-1.49,3.21-3.65,2.12-15.27,3.25-30.64,4.64-45.98,1.03-11.45,1.91-22.91,3.3-34.33.41-3.29.82-6.59,1.23-9.82-1.14-.57-2.13-.35-3.09-.35-15.43-.02-30.86-.02-46.29-.01-13.31.01-26.61.05-39.92.07-1.06-.03-2.12-.08-3.18-.08-51.7-.01-103.39-.01-155.09-.01h-3.26c-.57-4.44.22-8.64.49-12.83.44-6.91,1.15-13.8,1.76-20.71.77-8.76,1.55-17.53,2.32-26.29.54-6.18,1.05-12.35,1.59-18.52.77-8.69,1.56-17.37,2.32-26.05.71-8.12,1.39-16.25,2.11-24.37.73-8.27,1.52-16.55,2.27-24.83.72-8.03,1.41-16.07,2.14-24.11.74-8.19,1.52-16.39,2.27-24.58.72-7.79,1.39-15.58,2.14-23.37.89-9.16,1.84-18.32,2.75-27.48.41-4.13.97-8.26,1.11-12.41.09-2.5,1-3.38,3.43-3.59,14.26-1.21,28.55-.89,42.84-1.03,17.22-.16,34.45-.22,51.68-.32.17.02.34.05.5.08,5.59.39,11.18.19,16.77.11,6.04.05,12.08.14,18.11.15,42.14.09,84.27.15,126.41.26,11.26.03,22.53.17,33.79.26.56.01,1.12.08,1.88.14,4.74,52.84,9.47,105.61,14.21,158.46-.52.59-1.31.32-2,.32-20.66,0-41.32-.04-61.98-.07-3.27,0-6.52-.19-9.73-.83-1.79-.36-2.53-1.37-2.62-3.24-.65-12.71-1.98-25.37-3.27-38.03-1.04-10.22-2.09-20.44-3.48-30.62-.23-1.73-.8-2.54-2.62-2.83-6.46-1.03-12.97-1.45-19.48-1.81-21.51-1.17-43.04-2.04-64.59-2.09-.49,0-.97-.14-1.45-.21-.64-1.21-1.76-.6-2.62-.58-17.2.45-34.41.83-51.6,1.52-4.93.19-9.92-.04-14.99.91-4.16,37.82-7.37,75.64-10.95,113.62h3.17c19.17,0,38.35-.01,57.53,0,5.79,0,11.58.06,17.37.09.65-.06,1.3-.12,1.95-.19.9.02,1.8.05,2.69.06,46.55.06,93.09.06,139.64.24,7.74.03,15.51.07,23.24.76,1.57.14,3.01.59,4.47,1.06,1.33-.1,1.45.74,1.34,1.74Z"/>
      <path class="cls-1" d="M0,0v1000h1000V0H0ZM501.99,85.43h102.56v29.41c-15.81.36-31.59.73-47.6,1.1.44,1.23,1.27,1.88,1.94,2.61,15.44,16.65,30.88,33.29,46.33,49.92.78.84,1.46,1.58,1.44,2.91-.07,7.76-.03,15.52-.04,23.27,0,.39-.06.78-.11,1.26h-104.34v-29.55c16.37-.38,32.67.51,49.6-.92-3.27-3.77-6.02-7.09-8.92-10.26-12.88-14.12-25.78-28.22-38.76-42.24-1.57-1.7-2.18-3.36-2.15-5.63.13-7.26.05-14.51.05-21.88ZM393.45,158.47h53.22v-73.04h37.41v110.44h-90.63v-37.4ZM789.48,286.58c-.89,10.4-1.69,20.81-2.59,31.2-.89,10.32-1.88,20.63-2.78,30.95-.73,8.28-1.38,16.57-2.11,24.86-.9,10.23-1.87,20.46-2.77,30.69-.73,8.2-1.4,16.41-2.12,24.61-.74,8.45-1.53,16.89-2.28,25.34-.72,8.2-1.4,16.41-2.13,24.62-.74,8.44-1.52,16.88-2.26,25.33-.73,8.28-1.42,16.57-2.15,24.86-.73,8.36-1.5,16.72-2.25,25.09-.72,8.04-1.43,16.08-2.15,24.12-.76,8.53-1.54,17.05-2.3,25.58-.71,7.96-1.4,15.92-2.11,23.88-.76,8.52-1.54,17.05-2.29,25.57-.72,8.04-1.41,16.09-2.12,24.13-.76,8.44-1.54,16.88-2.29,25.33-.72,8.04-1.41,16.08-2.12,24.12-.76,8.45-1.54,16.89-2.3,25.33-.71,7.88-1.48,15.75-2.09,23.63-.49,6.26-1.46,12.48-1.5,18.77-.11.66-.23,1.31-.35,1.97-.03.98-.07,1.95-.1,2.93-.63,6.05-1.3,12.09-1.86,18.15-.78,8.4-1.48,16.81-2.21,25.21-.1.25-.2.5-.29.75-.09.12-.14.24-.13.38-1.69,1.31-3.56,2.28-5.54,3.06-7.88,3.12-16,5.47-24.11,7.85-34.86,10.23-69.89,19.83-104.91,29.47-34.7,9.56-69.39,19.19-104.27,28.12-1.95.5-3.76.49-5.71-.05-30.81-8.49-61.65-16.84-92.43-25.41-46.99-13.08-93.95-26.31-140.92-39.46-.9-.25-1.76-.4-2-1.48-.02-.33-.04-.66-.07-.99-1.06-12.34-2.1-24.69-3.21-37.03-1.06-11.85-2.24-23.69-3.3-35.54-.9-10.07-1.67-20.15-2.57-30.22-1.07-11.85-2.25-23.69-3.31-35.54-.9-10.07-1.67-20.15-2.58-30.21-1.06-11.86-2.24-23.7-3.3-35.55-1.06-11.94-2.01-23.88-3.07-35.82-1.06-11.85-2.24-23.69-3.3-35.55-.9-10.06-1.67-20.14-2.57-30.21-1.07-11.93-2.23-23.86-3.3-35.79-.9-10.07-1.68-20.15-2.58-30.21-.9-10.07-1.91-20.13-2.81-30.19-.9-10.15-1.68-20.31-2.57-30.46-.9-10.23-1.9-20.45-2.8-30.68-.9-10.15-1.7-20.31-2.59-30.46-.91-10.4-1.89-20.78-2.8-31.18-.73-8.44-1.37-16.9-2.1-25.34-.74-8.61-1.64-17.21-2.28-25.82-.5-6.58-1.26-13.16-1.22-19.77.07-.72.15-1.43.23-2.25h584.32c.09.82.16,1.53.24,2.25-.52,12.39-1.86,24.71-2.92,37.06Z"/>
    </g>
  </g>
</svg>