<?xml version="1.0" encoding="UTF-8"?>
<svg id="Capa_2" data-name="Capa 2" xmlns="http://www.w3.org/2000/svg" viewBox="0 0 212.97 71.45">
  <defs>
    <style>
      .cls-1 {
        fill: #069;
      }

      .cls-1, .cls-2 {
        stroke-width: 0px;
      }

      .cls-2 {
        fill: #fff;
      }
    </style>
  </defs>
  <g id="OBJECTS">
    <rect class="cls-1" width="212.97" height="71.45" rx="3.11" ry="3.11"/>
    <g>
      <path class="cls-2" d="M39.07,48.74h16.38v-5.38h-10.45v-20.51h-5.93v25.89ZM63.74,48.74v-17.83h-5.93v17.83h5.93ZM60.77,28.48c2.07,0,3.35-1.37,3.35-3.08-.04-1.75-1.29-3.08-3.31-3.08s-3.35,1.33-3.35,3.08,1.29,3.08,3.28,3.08h.04,0ZM66.49,48.74h5.93v-9.96c0-.53.04-1.07.2-1.45.43-1.06,1.4-2.17,3.04-2.17,2.15,0,3,1.64,3,4.03v9.54h5.93v-10.23c0-5.48-2.92-8.03-6.82-8.03-3.2,0-4.6,1.79-5.38,3.01h.04v-2.59h-5.93c.08,1.67,0,17.83,0,17.83ZM92.94,22.85h-5.93v25.89h5.93v-5.78l1.48-1.87,4.64,7.65h7.29l-7.8-11.07,6.82-7.53h-7.14s-4.87,6.74-5.3,7.54v-14.83Z"/>
      <path class="cls-2" d="M122.21,41.3c.08-.46.2-1.34.2-2.33,0-4.61-2.34-9.29-8.5-9.29-6.59,0-9.63,5.21-9.63,9.94,0,5.85,3.71,9.5,10.18,9.5,2.57,0,4.95-.38,6.9-1.18l-.78-3.91c-1.6.53-3.24.8-5.26.8-2.77,0-5.19-1.14-5.38-3.56l12.28.04h0ZM109.89,37.29c.16-1.52,1.17-3.77,3.71-3.77,2.69,0,3.32,2.4,3.32,3.77h-7.02ZM137.04,22.85v8.96h-.08c-.86-1.25-2.65-2.09-5.03-2.09-4.56,0-8.58,3.65-8.54,9.89,0,5.78,3.63,9.55,8.15,9.55,2.46,0,4.8-1.07,5.97-3.12h.12l.23,2.7h5.26c-.08-1.26-.16-3.42-.16-5.55v-20.34h-5.93,0ZM137.04,40.49c0,.46-.04.91-.12,1.29-.35,1.64-1.75,2.78-3.47,2.78-2.46,0-4.06-1.98-4.06-5.1,0-2.93,1.37-5.29,4.1-5.29,1.83,0,3.12,1.26,3.47,2.81.08.34.08.72.08,1.07v2.43h0Z"/>
      <path class="cls-2" d="M152.53,48.72v-17.83h-5.93v17.83h5.93,0ZM149.57,28.45c2.07,0,3.35-1.37,3.35-3.08-.04-1.75-1.29-3.08-3.31-3.08s-3.35,1.33-3.35,3.08,1.29,3.08,3.28,3.08h.04ZM155.81,48.72h5.93v-9.96c0-.53.04-1.07.2-1.45.43-1.07,1.4-2.17,3.04-2.17,2.14,0,3,1.64,3,4.03v9.54h5.93v-10.23c0-5.48-2.92-8.03-6.82-8.03-3.2,0-4.6,1.79-5.38,3h.04v-2.59h-5.93c.08,1.67,0,17.83,0,17.83h0Z"/>
    </g>
  </g>
</svg>