<?xml version="1.0" encoding="UTF-8"?>
<svg id="Capa_2" data-name="Capa 2" xmlns="http://www.w3.org/2000/svg" viewBox="0 0 1000 1000">
  <defs>
    <style>
      .cls-1 {
        fill: #f58686;
        stroke-width: 0px;
      }
    </style>
  </defs>
  <g id="Capa_1-2" data-name="Capa 1">
    <g>
      <path class="cls-1" d="M404.67,606.34c0,23.19-9.52,44.2-24.86,59.33h240.37c-15.33-15.13-24.86-36.14-24.86-59.33s9.81-44.8,25.53-59.98h-241.72c15.72,15.18,25.53,36.45,25.53,59.98ZM428.5,570.59h142.99v71.5h-142.99v-71.5Z"/>
      <path class="cls-1" d="M345.09,606.34c0-13.14-10.69-23.83-23.83-23.83-13.14,0-23.83,10.69-23.83,23.83s10.69,23.83,23.83,23.83,23.83-10.69,23.83-23.83Z"/>
      <path class="cls-1" d="M321.26,654.01c-8.83,0-17.1-2.42-24.19-6.62l-8.64,8.64c9.42,6.25,20.71,9.9,32.83,9.9.18,0,.37-.01.55-.01v-.23h4.73c10.12-.89,19.51-4.32,27.55-9.65l-8.64-8.64c-7.1,4.2-15.37,6.62-24.19,6.62Z"/>
      <rect class="cls-1" x="452.34" y="594.43" width="95.33" height="23.83"/>
      <path class="cls-1" d="M370.94,639.17c6.25-9.42,9.9-20.71,9.9-32.83s-3.65-23.41-9.9-32.83l-8.64,8.64c4.2,7.1,6.62,15.37,6.62,24.19s-2.42,17.1-6.62,24.19l8.64,8.64Z"/>
      <path class="cls-1" d="M678.74,654.01c-8.83,0-17.1-2.42-24.19-6.62l-8.64,8.64c8.04,5.33,17.43,8.76,27.55,9.65h4.73v.23c.18,0,.37.01.56.01,12.12,0,23.41-3.65,32.83-9.9l-8.64-8.64c-7.1,4.2-15.37,6.62-24.19,6.62Z"/>
      <path class="cls-1" d="M702.58,606.34c0-13.14-10.69-23.83-23.83-23.83-13.14,0-23.83,10.69-23.83,23.83s10.69,23.83,23.83,23.83,23.83-10.69,23.83-23.83Z"/>
      <path class="cls-1" d="M629.06,639.18l8.64-8.64c-4.2-7.1-6.62-15.37-6.62-24.19,0-8.83,2.42-17.1,6.62-24.19l-8.64-8.64c-6.25,9.42-9.9,20.71-9.9,32.83s3.65,23.41,9.9,32.83Z"/>
      <path class="cls-1" d="M678.74,558.68c8.83,0,17.1,2.42,24.19,6.62l8.64-8.64c-9.42-6.25-20.71-9.9-32.83-9.9-12.13,0-23.41,3.65-32.84,9.9l8.64,8.64c7.1-4.2,15.37-6.62,24.19-6.62Z"/>
      <path class="cls-1" d="M280.21,630.54c-4.2-7.1-6.62-15.37-6.62-24.19s2.42-17.1,6.62-24.19l-8.64-8.64c-6.25,9.42-9.9,20.71-9.9,32.83s3.65,23.41,9.9,32.83l8.64-8.64Z"/>
      <path class="cls-1" d="M321.25,558.68c8.83,0,17.1,2.42,24.19,6.62l8.64-8.64c-9.42-6.25-20.71-9.9-32.83-9.9-12.12,0-23.41,3.65-32.83,9.9l8.64,8.64c7.1-4.2,15.37-6.62,24.19-6.62Z"/>
      <path class="cls-1" d="M190.18,713.59h619.64v-214.5H190.18v214.5ZM774.26,510.72h23.24v23.24h-23.24v-23.24ZM774.26,678.07h23.24v23.24h-23.24v-23.24ZM321.26,522.93c1.82,0,3.62.08,5.42.2h346.65c1.79-.12,3.6-.2,5.42-.2,45.99,0,83.41,37.42,83.41,83.41s-37.42,83.41-83.41,83.41c-3.97,0-7.88-.3-11.7-.84h-334.08c-3.83.54-7.73.84-11.7.84-45.99,0-83.41-37.42-83.41-83.41s37.42-83.41,83.41-83.41ZM202.5,510.72h23.24v23.24h-23.24v-23.24ZM202.5,678.07h23.24v23.24h-23.24v-23.24Z"/>
      <path class="cls-1" d="M0,0v1000h1000V0H0ZM642.55,213.23h24.79v-23.24h23.24v23.24h23.24v23.24h-23.24v24.79h-23.24v-24.79h-24.79v-23.24ZM619.31,320.14h23.24v23.24h-23.24v-23.24ZM415.91,136.5c10.91-10.91,25.42-16.92,40.85-16.92s29.94,6.01,40.85,16.92l2.38,2.38,2.39-2.38c10.91-10.91,25.42-16.92,40.85-16.92s29.94,6.01,40.85,16.92h0c10.91,10.91,16.92,25.42,16.92,40.85s-6.01,29.94-16.92,40.85l-84.09,84.09-84.09-84.09c-10.91-10.91-16.92-25.42-16.92-40.85s6.01-29.94,16.92-40.85ZM596.07,273.65v23.24h-24.79v-23.24h24.79ZM523.24,368.17v23.24h-23.24v-23.24h23.24ZM393.09,344.93h23.24v23.24h-23.24v-23.24ZM297.02,273.66h24.79v-24.79h23.24v24.79h23.24v23.24h-23.24v23.24h-23.24v-23.24h-24.79v-23.24ZM297.02,380.57h24.79v23.24h-24.79v-23.24ZM198.75,880.42l29.79-119.16h0s542.92,0,542.92,0l29.79,119.16H198.75ZM166.35,737.42v-262.16h667.31v262.16H166.35ZM881.17,879.51h-71.28v-23.24h48.03v-404.42H142.07v404.42h48.03v23.24h-71.28v-450.9h762.35v450.9Z"/>
      <path class="cls-1" d="M500,268.6l67.24-67.24c6.41-6.41,9.94-14.94,9.94-24,0-9.07-3.53-17.59-9.94-24h0c-6.41-6.41-14.93-9.94-24-9.94s-17.59,3.53-24,9.94l-19.24,19.24-19.24-19.24c-6.41-6.41-14.93-9.94-24-9.94s-17.59,3.53-24,9.94c-6.41,6.41-9.94,14.94-9.94,24s3.53,17.59,9.94,24l67.24,67.24Z"/>
      <path class="cls-1" d="M247.15,785.09l-17.88,71.5h541.45l-17.87-71.5H247.15ZM286.17,833.02h-24.79v-23.24h24.79v23.24ZM332.66,833.02h-23.24v-23.24h23.24v23.24ZM380.69,833.02h-23.24v-23.24h23.24v23.24ZM642.55,833.02h-23.24v-23.24h23.24v23.24ZM690.59,833.02h-23.24v-23.24h23.24v23.24ZM738.62,833.02h-24.79v-23.24h24.79v23.24Z"/>
      <path class="cls-1" d="M728.43,639.17c6.25-9.42,9.9-20.71,9.9-32.83s-3.65-23.41-9.9-32.83l-8.64,8.64c4.2,7.1,6.62,15.36,6.62,24.19s-2.42,17.1-6.62,24.19l8.64,8.64Z"/>
    </g>
  </g>
</svg>