<?xml version="1.0" encoding="UTF-8"?>
<svg id="Capa_2" data-name="Capa 2" xmlns="http://www.w3.org/2000/svg" viewBox="0 0 1000 1000">
  <defs>
    <style>
      .cls-1 {
        fill: #f58686;
        stroke-width: 0px;
      }
    </style>
  </defs>
  <g id="Capa_1-2" data-name="Capa 1">
    <g>
      <path class="cls-1" d="M307.85,499.7h75.97v-153.53h-75.97v153.53Z"/>
      <path class="cls-1" d="M306.99,731.65s.03-.03.07-.07l-.07.07Z"/>
      <path class="cls-1" d="M693.12,191.52s-.12-.13-.19-.2l.19.2Z"/>
      <path class="cls-1" d="M616.36,499.4h76.01v-153.51h-76.01v153.51Z"/>
      <path class="cls-1" d="M0,0v1000h1000V0H0ZM923.73,730.87h-76.02v-153.19h-77.58v154.12c-26.2,0-51.42,0-76.66-.01,0,.08,0,.15,0,.23,0,0-.01,0-.01-.01-.08,0-.16,0-.24,0,.01,25.06.01,50.11.01,76.86h-76.98v.26h-.01c-.09-.01-.18-.01-.27-.01v76.21h-77.08v-76.22c25.62,0,51.35,0,77.08.01v-.25h.28v-76.87c25.65,0,51.3,0,76.96.01,0-.07,0-.14,0-.22.08,0,.17,0,.25,0-.2-21.31-.42-42.63-.61-63.94-.04-4.22,0-8.44,0-13.14h-385.87v76.7h.24v.24h76.61v77.21h.28s.01,0,.01-.01v.27h76.86v75.94h-76.85c0-25.04,0-50.49-.01-75.94h-.29v-.26h-76.61c0-26.31,0-51.76,0-77.21h-.24v-.24h-76.81v-153.89h-76.9v153.24h-77.02v-230.53h76.09v-77.25h77.26v-154.11h77.69v-77.45h-.23l.18-.18c-.07.07-.18.18-.18.18v-.23h-76.44v-76.51h76.44c0,25.57,0,51.04,0,76.51h.23v.23h76.7v76.53h231.54v-76.43h77.33v-.24l.03.03s-.04-.04-.04-.04h.24v-76.54h76.35v76.54c-25.4,0-50.88,0-76.35,0v.24h-.24v76.88h76.94v154.14h77v76.93h76.91v231.4Z"/>
      <path class="cls-1" d="M615.98,808.86s.02.02.05.05l-.05-.05Z"/>
      <path class="cls-1" d="M307.25,191.25s.06-.06.06-.06l-.06.06Z"/>
      <path class="cls-1" d="M692.91,191.31s0,0,.01.01h-.01Z"/>
      <path class="cls-1" d="M307.23,731.41h0s-.1.09-.16.16l.16-.16Z"/>
      <path class="cls-1" d="M693.23,731.79s.2.18.24.22h0s-.25-.23-.24-.22Z"/>
      <path class="cls-1" d="M384.12,808.85h0s-.28.26-.28.26l.28-.26Z"/>
      <path class="cls-1" d="M616.03,808.91l.22.2h0s-.14-.13-.22-.2Z"/>
    </g>
  </g>
</svg>